<?xml version="1.0" standalone="no"?>
<!DOCTYPE svg PUBLIC "-//W3C//DTD SVG 20010904//EN"
 "http://www.w3.org/TR/2001/REC-SVG-20010904/DTD/svg10.dtd">
<svg version="1.0" xmlns="http://www.w3.org/2000/svg"
 width="1036.000000pt" height="1600.000000pt" viewBox="0 0 1036.000000 1600.000000"
 preserveAspectRatio="xMidYMid meet">

<g transform="translate(0.000000,1600.000000) scale(0.100000,-0.100000)"
fill="#000000" stroke="none">
<path d="M5650 11487 c-9 -9 -330 -36 -615 -52 -269 -15 -344 -27 -450 -74
-67 -30 -91 -54 -115 -118 -19 -52 -20 -77 -20 -796 -1 -408 -6 -881 -11
-1052 -24 -697 -15 -4279 11 -4495 6 -47 15 -98 22 -114 11 -28 12 -28 76 -22
45 5 92 2 149 -10 93 -18 127 -14 145 19 9 16 13 167 16 605 3 429 7 582 16
579 6 -2 106 -121 221 -265 116 -143 221 -273 235 -289 14 -15 35 -40 46 -55
134 -172 529 -588 582 -614 20 -9 59 -16 87 -16 70 0 190 51 236 98 30 31 34
41 33 87 0 29 -8 67 -17 84 -16 30 -326 409 -421 513 -35 39 -169 197 -463
548 -35 41 -63 81 -63 89 0 33 59 40 378 47 252 5 320 9 346 21 40 19 226 221
226 245 0 26 -180 276 -324 450 -89 107 -316 372 -365 425 -134 146 -215 260
-298 424 -66 131 -69 167 -13 196 42 22 293 38 615 40 188 1 299 5 316 13 41
17 59 50 59 107 0 61 -37 127 -85 149 -57 28 -490 41 -900 28 -335 -10 -362
-9 -390 7 -59 34 -60 38 -63 478 -3 382 -2 405 17 447 39 89 140 110 410 86
118 -11 162 -11 245 -1 56 7 147 17 204 21 115 9 133 18 153 78 26 79 6 187
-39 210 -9 5 -105 12 -212 16 -328 11 -692 37 -728 52 -60 25 -60 21 -64 649
-3 620 -5 598 52 650 20 19 42 21 299 28 152 4 341 11 421 15 81 4 174 4 210
-1 66 -9 345 6 424 23 47 10 72 39 79 92 7 53 -7 98 -39 123 l-26 21 39 24
c21 14 39 35 41 46 4 28 -46 70 -99 84 -100 27 -574 73 -589 57z m-673 -3919
c229 -308 564 -786 650 -927 39 -63 41 -79 11 -85 -13 -3 -170 -7 -349 -10
l-326 -6 -34 23 c-65 44 -63 31 -70 587 -5 447 -2 550 15 550 3 0 49 -60 103
-132z"/>
<path d="M3653 11370 c-45 -10 -57 -22 -124 -121 -155 -232 -375 -622 -656
-1169 -50 -96 -106 -204 -125 -240 -19 -36 -93 -177 -163 -315 -224 -437 -300
-579 -543 -1010 -74 -132 -168 -301 -207 -375 -247 -462 -257 -482 -540 -1035
-65 -126 -188 -360 -275 -520 -86 -159 -181 -335 -210 -390 -29 -55 -144 -267
-255 -470 -111 -204 -214 -396 -228 -426 -14 -31 -46 -81 -70 -111 -54 -66
-67 -90 -67 -119 0 -12 -19 -52 -42 -88 -58 -93 -148 -281 -148 -312 0 -41 29
-58 116 -69 73 -9 1492 -1 2404 15 173 3 466 8 650 11 387 6 365 1 500 111 71
58 86 75 88 102 2 24 -3 40 -19 57 -14 15 -23 39 -25 69 -5 52 -79 187 -121
218 -37 28 -190 35 -583 26 -190 -5 -615 -5 -945 -1 -330 4 -705 5 -832 4
-128 -2 -233 -1 -233 2 0 16 68 151 138 273 44 76 123 217 177 313 54 96 146
258 205 360 136 236 210 372 350 645 155 303 256 499 295 570 18 33 58 110 90
170 32 61 72 137 90 170 66 122 262 488 405 755 151 282 194 364 393 745 63
121 201 384 307 585 265 500 440 850 540 1075 46 105 101 225 122 267 42 85
48 139 23 188 -9 17 -24 30 -34 30 -35 0 -176 -63 -226 -101 -27 -20 -53 -35
-57 -33 -4 3 0 23 8 44 11 26 14 52 10 75 l-7 35 -72 -1 c-40 -1 -87 -5 -104
-9z"/>
<path d="M9061 10383 c-31 -32 -123 -129 -205 -215 -82 -87 -156 -158 -165
-158 -9 0 -42 29 -74 65 -46 51 -64 65 -87 65 -41 0 -130 -70 -239 -188 -51
-56 -97 -102 -102 -102 -4 0 -40 47 -80 105 -81 119 -98 135 -150 135 -42 0
-71 -28 -135 -127 l-36 -56 -81 82 c-120 121 -144 120 -228 -8 -30 -45 -56
-81 -59 -81 -3 0 -25 30 -50 66 -71 105 -97 109 -181 29 -33 -31 -67 -55 -79
-55 -26 0 -36 5 -287 146 -111 63 -212 114 -225 114 -37 0 -81 -42 -81 -76 0
-35 157 -469 221 -609 25 -55 70 -174 101 -264 l56 -163 60 -26 c53 -23 73
-26 170 -25 101 1 322 19 725 59 100 10 312 18 599 21 l444 5 38 35 c68 62 94
116 164 353 36 124 89 291 116 371 50 149 77 287 82 419 2 71 2 72 -35 106
-33 30 -44 34 -89 34 -50 0 -54 -2 -108 -57z"/>
<path d="M8720 8979 c-287 -37 -711 -60 -1272 -68 -442 -6 -457 -7 -485 -27
-58 -43 -57 -29 -42 -583 8 -278 12 -637 11 -798 -4 -326 13 -1248 28 -1533
26 -483 29 -622 20 -815 -6 -117 -16 -229 -26 -270 -28 -120 -28 -137 -2 -162
28 -26 218 -83 278 -83 29 0 58 9 89 27 46 27 47 27 306 34 143 4 509 10 813
12 439 4 556 8 569 18 17 15 17 23 -12 384 -47 601 -57 1100 -46 2455 8 941
11 1094 25 1155 20 84 14 136 -22 189 -49 71 -92 83 -232 65z m-296 -511 c18
-29 43 -688 51 -1328 5 -422 37 -1383 53 -1630 5 -63 6 -123 4 -132 -8 -33
-68 -41 -347 -44 -148 -1 -313 -7 -365 -12 -52 -6 -154 -14 -226 -18 -124 -6
-133 -5 -152 14 -28 28 -31 85 -36 747 -4 508 -12 747 -47 1505 -9 193 -9 255
1 290 15 53 14 246 -1 370 -16 122 -14 139 17 171 38 40 87 47 404 54 151 4
336 13 410 20 207 19 217 19 234 -7z"/>
<path d="M9729 7442 l-33 -30 2 -198 c2 -110 7 -293 13 -409 14 -296 28 -973
29 -1341 0 -348 -5 -382 -66 -462 -40 -53 -44 -92 -11 -123 22 -20 27 -21 297
-17 284 5 303 7 367 51 l33 22 0 252 c0 139 -5 308 -10 375 -6 68 -15 299 -20
513 -8 377 -10 397 -44 597 -39 236 -47 264 -91 333 -59 92 -315 425 -339 440
-13 9 -39 18 -59 22 -28 4 -40 0 -68 -25z"/>
</g>
</svg>
